<svg width="107" height="119" viewBox="0 0 107 119" fill="none" xmlns="http://www.w3.org/2000/svg">
<g opacity="0.8" filter="url(#filter0_f)">
<path d="M44.0616 52.7956C30.9102 52.7006 20.1586 43.4891 19.2327 31.8276C20.1775 31.6187 21.0844 31.5047 21.8781 31.5047C31.8172 31.5237 42.172 40.9821 44.0616 52.7956Z" fill="#EFDEB3"/>
<path d="M61.2379 30.2132C61.2379 38.475 58.3279 46.0531 53.5095 51.9029C48.6911 46.0531 45.7812 38.494 45.7812 30.2132C45.7812 23.8126 48.9179 18.4947 53.5095 15C58.1012 18.4947 61.2379 23.8126 61.2379 30.2132Z" fill="#EFDEB3"/>
<path d="M87.7484 31.8276C86.8414 43.4891 76.0897 52.7006 62.9383 52.7956C64.8279 41.0011 75.1827 31.5237 85.103 31.5237C85.8966 31.5237 86.8036 31.6187 87.7484 31.8276Z" fill="#EFDEB3"/>
<path d="M87.7484 87.1725C86.8036 87.3814 85.8966 87.4953 85.0841 87.4953C75.1639 87.4953 64.809 78.018 62.9195 66.2235C76.0898 66.2994 86.8414 75.5109 87.7484 87.1725Z" fill="#EFDEB3"/>
<path d="M92 59.5C88.3153 62.121 83.5347 63.7164 78.3195 63.7164C72.5752 63.7164 67.1899 62.178 62.5038 59.5C67.1899 56.822 72.5752 55.2836 78.3195 55.2836C83.5347 55.2836 88.3153 56.879 92 59.5Z" fill="#EFDEB3"/>
<path d="M44.4962 59.5C39.81 62.178 34.4248 63.7164 28.6805 63.7164C23.4464 63.7164 18.6658 62.121 15 59.5C18.6847 56.879 23.4653 55.2836 28.6805 55.2836C34.4248 55.2836 39.81 56.822 44.4962 59.5Z" fill="#EFDEB3"/>
<path d="M61.2379 88.7868C61.2379 95.1874 58.1012 100.505 53.5095 104C48.9179 100.505 45.7812 95.1874 45.7812 88.7868C45.7812 80.525 48.6911 72.9469 53.5095 67.0971C58.3279 72.9469 61.2379 80.525 61.2379 88.7868Z" fill="#EFDEB3"/>
<path d="M44.0616 66.2235C42.172 78.018 31.8171 87.4953 21.8969 87.4953C21.0844 87.4953 20.1774 87.3814 19.2515 87.1725C20.1585 75.5109 30.9102 66.2994 44.0616 66.2235Z" fill="#EFDEB3"/>
</g>
<g clip-path="url(#clip0)">
<path d="M70.9483 69.1649C72.3346 69.2131 73.6488 69.8072 74.6155 70.8227C75.5823 71.8381 76.1266 73.1961 76.1344 74.6122C76.1422 76.0282 75.6129 77.3924 74.6574 78.4189C73.7019 79.4454 72.3944 80.0546 71.0088 80.1187C70.2996 80.1153 69.598 79.9691 68.9442 79.6886C68.2904 79.408 67.6972 78.9986 67.1985 78.4838C66.6998 77.9689 66.3055 77.3588 66.038 76.6882C65.7705 76.0176 65.6352 75.2998 65.6398 74.5757C65.6363 73.8635 65.7713 73.1575 66.037 72.4989C66.3027 71.8403 66.6937 71.242 67.1875 70.7388C67.6812 70.2355 68.2679 69.8372 68.9134 69.5671C69.559 69.2969 70.2507 69.1602 70.9483 69.1649V69.1649Z" fill="#FFFCF3"/>
<path d="M71.0092 81C70.1775 80.9945 69.355 80.8211 68.5892 80.4899C67.8233 80.1587 67.1291 79.6762 66.5466 79.0701C65.9799 78.4726 65.5354 77.7659 65.239 76.9913C64.9426 76.2167 64.8003 75.3895 64.8202 74.5581C64.8059 73.7433 64.9512 72.9338 65.2477 72.1771C65.5442 71.4204 65.9858 70.7319 66.5466 70.1519C67.1281 69.5511 67.8202 69.0737 68.5831 68.747C69.346 68.4203 70.1647 68.2509 70.992 68.2484C72.6042 68.3012 74.1336 68.9901 75.2586 70.1703C76.3836 71.3505 77.0166 72.9301 77.0244 74.5769C77.0322 76.2236 76.4143 77.8094 75.3006 79.0007C74.1868 80.192 72.6641 80.896 71.0524 80.9647L71.0092 81ZM70.9488 70.0461C70.3512 70.0478 69.7599 70.1702 69.2088 70.4061C68.6577 70.642 68.1578 70.9869 67.7378 71.4209C67.3375 71.8334 67.0221 72.3234 66.8101 72.8622C66.5981 73.4009 66.4938 73.9776 66.5034 74.5581C66.4912 75.1639 66.598 75.7661 66.8174 76.3291C67.0368 76.8922 67.3644 77.4046 67.7809 77.8363C68.202 78.2756 68.704 78.6256 69.258 78.866C69.8121 79.1065 70.4072 79.2328 71.0092 79.2375C72.1691 79.1783 73.2617 78.6642 74.0593 77.8024C74.8569 76.9407 75.2977 75.7978 75.2899 74.6123C75.2821 73.4267 74.8263 72.29 74.0175 71.4393C73.2086 70.5885 72.1093 70.0895 70.9488 70.0461V70.0461Z" fill="#1A4032"/>
<path d="M37.9659 69.1649C39.0322 69.158 40.0763 69.4754 40.9652 70.0766C41.8541 70.6778 42.5476 71.5356 42.9572 72.5407C43.3667 73.5458 43.4739 74.6526 43.265 75.7201C43.0561 76.7876 42.5406 77.7674 41.7841 78.5346C41.0277 79.3018 40.0647 79.8218 39.0177 80.0281C37.9708 80.2345 36.8874 80.1179 35.9056 79.6932C34.9238 79.2685 34.088 78.555 33.5049 77.6437C32.9218 76.7323 32.6178 75.6643 32.6315 74.5758C32.6208 73.8592 32.7518 73.1479 33.0166 72.4842C33.2814 71.8205 33.6745 71.2181 34.1724 70.713C34.6704 70.208 35.263 69.8106 35.9148 69.5446C36.5665 69.2786 37.2642 69.1495 37.9659 69.1649V69.1649Z" fill="#FFFCF3"/>
<path d="M38.0268 80.9999C37.1964 80.9942 36.3753 80.8207 35.6109 80.4895C34.8464 80.1583 34.1538 79.6758 33.5728 79.07C32.9905 78.4803 32.5307 77.7768 32.2207 77.0016C31.9108 76.2264 31.757 75.3953 31.7687 74.5581C31.753 73.743 31.8976 72.9331 32.1942 72.1762C32.4907 71.4193 32.9331 70.7309 33.4951 70.1518C34.2141 69.4078 35.1015 68.856 36.079 68.5453C37.0565 68.2345 38.0939 68.1744 39.0995 68.3702C40.1051 68.5661 41.048 69.0118 41.8448 69.668C42.6416 70.3243 43.2678 71.1708 43.6681 72.1328C44.0683 73.0948 44.2302 74.1426 44.1395 75.1837C44.0489 76.2248 43.7084 77.227 43.1481 78.1018C42.5879 78.9766 41.8252 79.6971 40.9275 80.1995C40.0298 80.7019 39.0246 80.9707 38.0009 80.9823L38.0268 80.9999ZM37.9664 70.0461C37.3696 70.0421 36.7779 70.16 36.2265 70.3931C35.675 70.6262 35.1748 70.9696 34.7554 71.4032C34.3507 71.8173 34.0308 72.3096 33.8145 72.8512C33.5981 73.3929 33.4895 73.9731 33.4951 74.5581C33.4809 75.1641 33.5868 75.7669 33.8063 76.3302C34.0258 76.8935 34.3545 77.4058 34.7726 77.8363C35.1921 78.2753 35.6926 78.6252 36.2452 78.8657C36.7978 79.1061 37.3916 79.2325 37.9923 79.2375C39.1521 79.1782 40.2448 78.6641 41.0424 77.8024C41.8399 76.9406 42.2808 75.7978 42.273 74.6122C42.2652 73.4267 41.8093 72.29 41.0005 71.4392C40.1917 70.5885 39.0924 70.0894 37.9319 70.0461H37.9664Z" fill="#1A4032"/>
<path d="M83.1369 63.1548C83.0902 63.4078 83.0297 63.6578 82.9556 63.9039C82.3312 66.7038 81.4943 69.4498 80.4524 72.1171C80.1503 72.9983 79.5374 73.9853 78.6311 73.8795C78.1008 73.6798 77.6491 73.3084 77.3449 72.8221C75.6186 70.522 73.685 68.9093 70.6984 68.9093C69.4582 68.8851 68.2341 69.1989 67.1523 69.8185C66.0704 70.4381 65.17 71.3411 64.5439 72.4343C64.2571 72.9586 63.931 73.4595 63.5685 73.9324C63.3366 74.2553 63.0703 74.5509 62.7744 74.8137C61.6781 75.6949 60.1848 75.501 58.8728 75.501H49.6108C48.3937 75.501 46.8659 75.8095 45.7696 75.1309C45.0982 74.5415 44.5769 73.7946 44.2504 72.9542C43.3116 71.2116 41.7975 69.8657 39.9777 69.1561C39.6589 69.029 39.3296 68.9317 38.9936 68.8653C38.401 68.7586 37.7999 68.7084 37.1982 68.7155H33.2275C31.0187 68.7086 28.9017 67.8127 27.3358 66.2223C25.7699 64.6319 24.8815 62.4752 24.8633 60.2203V41.9345C24.8656 41.3907 25.0782 40.8697 25.4549 40.4852C25.8316 40.1006 26.3418 39.8835 26.8745 39.8812H56.2832C58.3992 39.8829 60.4571 40.5882 62.1454 41.8904C63.8337 43.1927 65.0605 45.021 65.6402 47.0986H67.5478C69.7358 47.0987 71.886 47.6817 73.7858 48.7898C75.6857 49.8979 77.2695 51.4929 78.3808 53.4171C79.0109 54.5098 79.6496 55.6026 80.2798 56.6777C81.307 58.6076 83.2578 60.8548 83.1369 63.1548Z" fill="#FFFCF3"/>
<path d="M83.9819 63.3223V63.4457V63.5073V63.71C83.9518 63.8855 83.9026 64.0569 83.8351 64.2212V64.0978C83.4214 65.9762 82.9056 67.8297 82.29 69.6496C81.9965 70.5308 81.6599 71.4738 81.3233 72.3462C81.1474 72.8896 80.8785 73.3968 80.5291 73.8443C80.3119 74.1228 80.0418 74.3536 79.735 74.5229C79.3676 74.7134 78.9518 74.7842 78.5438 74.7256H78.4834C77.9915 74.5976 77.5472 74.3249 77.2059 73.9413C77.0678 73.7914 76.9469 73.6416 76.8347 73.5094C76.7225 73.3773 76.6103 73.2274 76.5067 73.0953C76.1223 72.5851 75.6979 72.1077 75.2378 71.6676C74.3951 70.7983 73.3305 70.1877 72.1649 69.9052C71.5804 69.7806 70.9835 69.7273 70.3867 69.7465C69.7981 69.7628 69.2157 69.8728 68.6603 70.0726C67.5415 70.4623 66.5558 71.172 65.8205 72.1171C65.6428 72.351 65.4786 72.5953 65.3284 72.8485C65.1558 73.1658 64.9659 73.4742 64.7674 73.7298C64.6638 73.8884 64.5602 74.0382 64.448 74.188L64.1373 74.6022C63.7888 75.1362 63.3183 75.5756 62.7664 75.8827C62.2145 76.1897 61.5978 76.3551 60.9694 76.3647C60.2098 76.4352 59.5192 76.3647 58.8805 76.3647H49.7997C49.4631 76.3647 49.1869 76.3647 48.8416 76.3647C48.113 76.4475 47.3777 76.4475 46.6491 76.3647C46.2219 76.3151 45.8052 76.1961 45.4148 76.0122C45.0274 75.7768 44.6922 75.4617 44.4307 75.0869C44.0378 74.4881 43.6832 73.8641 43.369 73.2186C42.7496 72.1648 41.8873 71.2814 40.8571 70.6454C40.3543 70.3237 39.8074 70.0802 39.2344 69.9228C38.6754 69.7473 38.0926 69.664 37.508 69.676H33.4942C31.9966 69.7079 30.5143 69.3629 29.1783 68.6714C27.848 68.0061 26.694 67.0238 25.8137 65.8076C24.9333 64.5913 24.3524 63.1767 24.12 61.6832C24.0219 60.9592 23.9815 60.2283 23.9991 59.4977V42.0579C23.988 41.5833 24.0855 41.1125 24.284 40.6832C24.4848 40.2344 24.7934 39.8448 25.1813 39.5505C25.5691 39.2562 26.0236 39.0669 26.5024 39H26.8649H52.7605C54.107 39 55.3846 39 56.8002 39C58.2674 39.0762 59.7026 39.4665 61.0125 40.1456C62.32 40.8167 63.4783 41.7553 64.4153 42.9029C65.3523 44.0506 66.048 45.3828 66.4592 46.8166V46.8607C66.6405 47.0017 64.8882 45.6446 65.596 46.2174H67.1584C67.7348 46.2128 68.3111 46.2393 68.8848 46.2967C70.0278 46.414 71.1508 46.6836 72.2253 47.0986C74.3853 47.9247 76.3 49.3057 77.7842 51.1083C78.5026 52.006 79.1411 52.9674 79.6918 53.9811L81.3233 56.8011C81.8584 57.6823 82.4886 58.5636 83.0496 59.6387C83.3319 60.1721 83.5687 60.7294 83.7574 61.3042C83.8457 61.6109 83.9148 61.9228 83.9646 62.2384L84.0164 62.7319C83.9991 62.9081 83.9991 63.1196 83.9819 63.3223ZM82.2555 62.9962C82.2472 62.926 82.2472 62.855 82.2555 62.7847V62.4675C82.2222 62.241 82.1731 62.0172 82.1088 61.7977C81.9562 61.3314 81.7627 60.8801 81.5304 60.4494C81.0557 59.5682 80.4428 58.687 79.8645 57.6823L78.1985 54.8624C77.7009 53.9307 77.1232 53.0459 76.4722 52.2186C74.5149 49.8444 71.728 48.3427 68.7035 48.0327C68.1987 47.9819 67.6916 47.9583 67.1843 47.9622H65.6478C66.3815 48.535 64.6293 47.1867 64.7846 47.3189C64.4467 46.1182 63.8698 45.0016 63.0901 44.0387C62.3104 43.0759 61.3445 42.2876 60.2529 41.723C59.156 41.1514 57.9526 40.824 56.7225 40.7625C55.4709 40.7625 54.0639 40.7625 52.7432 40.7625H26.8477C26.7988 40.7582 26.7497 40.7582 26.7009 40.7625C26.515 40.792 26.339 40.8677 26.1885 40.983C26.038 41.0982 25.9175 41.2495 25.8377 41.4234C25.7493 41.6159 25.7106 41.8282 25.7255 42.0403V57.4444C25.6841 58.7672 25.7187 60.0913 25.8291 61.41C26.1215 63.2529 27.0604 64.9243 28.4706 66.1128C29.8809 67.3012 31.6663 67.9256 33.4942 67.8695H37.5339C38.2792 67.8598 39.0215 67.9668 39.735 68.1867C40.4547 68.379 41.1437 68.6757 41.7808 69.068C43.0538 69.8564 44.1179 70.9518 44.8796 72.2581C45.1662 72.839 45.4832 73.4038 45.8291 73.9501C45.9551 74.1343 46.1167 74.2902 46.3038 74.4083C46.51 74.5235 46.7354 74.5982 46.9685 74.6286C47.5709 74.6961 48.1788 74.6961 48.7812 74.6286C49.1006 74.6286 49.4976 74.6286 49.8256 74.6286H58.8459C60.2443 74.6286 61.4959 74.7344 62.221 74.1439C62.4167 73.9755 62.5882 73.7797 62.7303 73.5623L63.0324 73.1658L63.3 72.7868C63.4726 72.5225 63.6366 72.2493 63.792 71.9673C63.9878 71.6335 64.204 71.3127 64.4394 71.0067C65.3806 69.7915 66.641 68.8746 68.0734 68.363C68.7886 68.1146 69.5365 67.9779 70.2918 67.9576C71.033 67.9275 71.775 67.9897 72.5015 68.1427C73.9653 68.4961 75.3078 69.2484 76.3858 70.3193C76.902 70.8199 77.3809 71.3589 77.8187 71.932C77.9223 72.0642 78.0173 72.1964 78.1209 72.311C78.2125 72.4309 78.3105 72.5456 78.4143 72.6546C78.5188 72.79 78.6599 72.8911 78.82 72.9454H78.751C78.8459 72.9454 78.9581 72.9454 79.1739 72.6811C79.3957 72.3842 79.5651 72.0502 79.6746 71.6941C80.0199 70.8128 80.3306 69.9316 80.6241 69.0504C81.2122 67.2859 81.7106 65.4917 82.1174 63.6748V63.6043C82.1438 63.5328 82.164 63.4591 82.1778 63.384V63.1989V63.0667C82.2814 63.005 82.2987 62.9169 82.29 62.9962H82.2555Z" fill="#1A4032"/>
<path d="M67.0469 51.5137C73.4431 51.5137 76.2053 55.1796 77.3101 59.6828C69.3084 59.6828 67.0469 59.6828 67.0469 51.5137Z" fill="#1A4032"/>
</g>
<defs>
<filter id="filter0_f" x="0" y="0" width="107" height="119" filterUnits="userSpaceOnUse" color-interpolation-filters="sRGB">
<feFlood flood-opacity="0" result="BackgroundImageFix"/>
<feBlend mode="normal" in="SourceGraphic" in2="BackgroundImageFix" result="shape"/>
<feGaussianBlur stdDeviation="7.5" result="effect1_foregroundBlur"/>
</filter>
<clipPath id="clip0">
<rect width="60" height="42" fill="white" transform="translate(24 39)"/>
</clipPath>
</defs>
</svg>
