<svg width="107" height="119" viewBox="0 0 107 119" fill="none" xmlns="http://www.w3.org/2000/svg">
<g opacity="0.8" filter="url(#filter0_f)">
<path d="M44.0616 52.7956C30.9102 52.7006 20.1586 43.4891 19.2327 31.8276C20.1775 31.6187 21.0844 31.5047 21.8781 31.5047C31.8172 31.5237 42.172 40.9821 44.0616 52.7956Z" fill="#EFDEB3"/>
<path d="M61.2379 30.2132C61.2379 38.475 58.3279 46.0531 53.5095 51.9029C48.6911 46.0531 45.7812 38.494 45.7812 30.2132C45.7812 23.8126 48.9179 18.4947 53.5095 15C58.1012 18.4947 61.2379 23.8126 61.2379 30.2132Z" fill="#EFDEB3"/>
<path d="M87.7484 31.8276C86.8414 43.4891 76.0897 52.7006 62.9383 52.7956C64.8279 41.0011 75.1827 31.5237 85.103 31.5237C85.8966 31.5237 86.8036 31.6187 87.7484 31.8276Z" fill="#EFDEB3"/>
<path d="M87.7484 87.1725C86.8036 87.3814 85.8966 87.4953 85.0841 87.4953C75.1639 87.4953 64.809 78.018 62.9195 66.2235C76.0898 66.2994 86.8414 75.5109 87.7484 87.1725Z" fill="#EFDEB3"/>
<path d="M92 59.5C88.3153 62.121 83.5347 63.7164 78.3195 63.7164C72.5752 63.7164 67.1899 62.178 62.5038 59.5C67.1899 56.822 72.5752 55.2836 78.3195 55.2836C83.5347 55.2836 88.3153 56.879 92 59.5Z" fill="#EFDEB3"/>
<path d="M44.4962 59.5C39.81 62.178 34.4248 63.7164 28.6805 63.7164C23.4464 63.7164 18.6658 62.121 15 59.5C18.6847 56.879 23.4653 55.2836 28.6805 55.2836C34.4248 55.2836 39.81 56.822 44.4962 59.5Z" fill="#EFDEB3"/>
<path d="M61.2379 88.7868C61.2379 95.1874 58.1012 100.505 53.5095 104C48.9179 100.505 45.7812 95.1874 45.7812 88.7868C45.7812 80.525 48.6911 72.9469 53.5095 67.0971C58.3279 72.9469 61.2379 80.525 61.2379 88.7868Z" fill="#EFDEB3"/>
<path d="M44.0616 66.2235C42.172 78.018 31.8171 87.4953 21.8969 87.4953C21.0844 87.4953 20.1774 87.3814 19.2515 87.1725C20.1585 75.5109 30.9102 66.2994 44.0616 66.2235Z" fill="#EFDEB3"/>
</g>
<path d="M47.1131 64.3643C47.1128 66.682 46.3353 68.9327 44.905 70.7565C43.4746 72.5802 41.474 73.8717 39.2231 74.4243C38.9235 74.4909 38.6118 74.4807 38.3172 74.3946C38.0225 74.3085 37.7545 74.1492 37.5379 73.9317C37.3214 73.7141 37.1634 73.4453 37.0786 73.1503C36.9938 72.8553 36.985 72.5436 37.0531 72.2443C37.6076 69.9952 38.8999 67.9968 40.7234 66.5684C42.547 65.14 44.7967 64.364 47.1131 64.3643V64.3643Z" fill="#FFFCF3"/>
<path d="M47.1133 64.3642C47.113 66.682 46.3356 68.9327 44.9052 70.7565C43.4748 72.5802 41.4742 73.8716 39.2233 74.4242C39.087 74.4389 38.9496 74.4389 38.8133 74.4242C38.5412 74.4204 38.2734 74.3559 38.0293 74.2355C37.7853 74.1151 37.5711 73.9418 37.4025 73.7282C37.2339 73.5145 37.1151 73.266 37.0547 73.0006C36.9943 72.7353 36.9938 72.4598 37.0533 72.1942C37.6078 69.9452 38.9001 67.9468 40.7237 66.5184C42.5472 65.09 44.7969 64.314 47.1133 64.3142V64.3642ZM49.1133 62.3142H47.1133C44.3471 62.3078 41.6592 63.2325 39.4824 64.9395C37.3057 66.6464 35.7667 69.0363 35.1133 71.7242C34.9754 72.2794 34.9678 72.8589 35.0909 73.4175C35.2141 73.976 35.4648 74.4986 35.8233 74.9442C36.1793 75.4012 36.6342 75.7718 37.1537 76.0281C37.6732 76.2844 38.244 76.4198 38.8233 76.4242C39.1233 76.4228 39.422 76.3859 39.7133 76.3142C42.4013 75.6609 44.7911 74.1219 46.4981 71.9451C48.205 69.7684 49.1297 67.0805 49.1233 64.3142V62.3142H49.1133Z" fill="#1A4032"/>
<path d="M36.6243 76.3742C36.232 78.8012 34.9878 81.009 33.1148 82.6015C31.2419 84.1941 28.8628 85.0672 26.4043 85.0642C26.4034 82.6063 27.2772 80.2282 28.8694 78.3557C30.4616 76.4832 32.6682 75.2384 35.0943 74.8442C35.3022 74.814 35.5143 74.8328 35.7137 74.899C35.9131 74.9652 36.0943 75.077 36.2429 75.2256C36.3915 75.3742 36.5033 75.5554 36.5695 75.7548C36.6357 75.9542 36.6545 76.1663 36.6243 76.3742V76.3742Z" fill="#FFFCF3"/>
<path d="M35.3326 74.8242C35.525 74.828 35.7144 74.8725 35.8883 74.9549C36.0622 75.0373 36.2167 75.1557 36.3414 75.3022C36.4662 75.4487 36.5584 75.62 36.6121 75.8048C36.6657 75.9896 36.6796 76.1837 36.6526 76.3742C36.2603 78.8012 35.0161 81.009 33.1432 82.6015C31.2702 84.1941 28.8911 85.0672 26.4326 85.0642C26.4317 82.6063 27.3055 80.2282 28.8977 78.3557C30.4899 76.4832 32.6965 75.2384 35.1226 74.8442H35.3326V74.8242ZM35.3326 72.8442C35.1563 72.8294 34.979 72.8294 34.8026 72.8442C31.8917 73.2951 29.2398 74.7774 27.3306 77.0206C25.4215 79.2639 24.3823 82.1186 24.4026 85.0642V87.0642H26.4026C29.3393 87.0767 32.1835 86.0381 34.4211 84.1362C36.6586 82.2343 38.1419 79.5945 38.6026 76.6942C38.6742 76.2175 38.6426 75.7309 38.5101 75.2674C38.3775 74.8039 38.1471 74.3743 37.8343 74.0075C37.5215 73.6406 37.1336 73.3452 36.6969 73.1411C36.2601 72.9369 35.7847 72.8289 35.3026 72.8242L35.3326 72.8442Z" fill="#1A4032"/>
<path fill-rule="evenodd" clip-rule="evenodd" d="M47.4326 33.1042C48.8439 34.5211 49.6362 36.4395 49.6362 38.4392C49.6362 40.439 48.8439 42.3573 47.4326 43.7742C48.8462 45.1892 49.6399 47.1077 49.6389 49.1078C49.638 51.1078 48.8426 53.0256 47.4276 54.4392C46.0127 55.8528 44.0942 56.6465 42.0941 56.6455C40.094 56.6446 38.1762 55.8492 36.7626 54.4342C35.349 55.8492 33.4313 56.6446 31.4312 56.6455C29.4311 56.6465 27.5126 55.8528 26.0976 54.4392C24.6827 53.0256 23.8873 51.1078 23.8863 49.1078C23.8854 47.1077 24.679 45.1892 26.0926 43.7742C24.6777 42.3593 23.8828 40.4403 23.8828 38.4392C23.8828 36.4382 24.6777 34.5192 26.0926 33.1042C27.5076 31.6893 29.4266 30.8944 31.4276 30.8944C33.4287 30.8944 35.3477 31.6893 36.7626 33.1042C38.1795 31.693 40.0979 30.9007 42.0976 30.9007C44.0974 30.9007 46.0157 31.693 47.4326 33.1042V33.1042Z" fill="#FFFCF3"/>
<path d="M48.1334 32.4042C48.9191 33.1891 49.5363 34.126 49.9472 35.1577C50.3582 36.1894 50.5542 37.2941 50.5234 38.4042C50.496 39.4912 50.2374 40.56 49.765 41.5393C49.2926 42.5186 48.617 43.3862 47.7834 44.0842V43.3742C48.6163 44.0751 49.2912 44.9446 49.7635 45.9254C50.2358 46.9062 50.4948 47.976 50.5234 49.0642C50.5566 50.1803 50.3612 51.2914 49.9493 52.3291C49.5375 53.3669 48.9177 54.3096 48.1282 55.0991C47.3387 55.8886 46.3961 56.5083 45.3583 56.9202C44.3205 57.3321 43.2094 57.5275 42.0934 57.4942C41.0068 57.4643 39.939 57.2047 38.96 56.7324C37.981 56.2602 37.1131 55.586 36.4134 54.7542H37.1134C36.4136 55.586 35.5457 56.2602 34.5667 56.7324C33.5878 57.2047 32.5199 57.4643 31.4334 57.4942C30.3177 57.526 29.2073 57.3297 28.1701 56.9173C27.133 56.5049 26.191 55.8851 25.4018 55.0958C24.6125 54.3066 23.9928 53.3646 23.5803 52.3275C23.1679 51.2903 22.9716 50.1799 23.0034 49.0642C23.0333 47.9777 23.2929 46.9099 23.7652 45.9309C24.2375 44.9519 24.9116 44.084 25.7434 43.3842V44.0842C24.9116 43.3845 24.2375 42.5166 23.7652 41.5376C23.2929 40.5586 23.0333 39.4908 23.0034 38.4042C22.9714 37.2899 23.1678 36.1808 23.5805 35.1453C23.9933 34.1097 24.6136 33.1695 25.4032 32.3826C26.1929 31.5958 27.1353 30.9788 28.1723 30.5698C29.2094 30.1608 30.3191 29.9683 31.4334 30.0042C32.5216 30.0328 33.5914 30.2918 34.5722 30.7641C35.553 31.2364 36.4225 31.9113 37.1234 32.7442H36.4134C37.1114 31.9106 37.979 31.235 38.9583 30.7626C39.9377 30.2902 41.0064 30.0317 42.0934 30.0042C43.2108 29.9692 44.3236 30.1641 45.3626 30.577C46.4016 30.9898 47.3447 31.6118 48.1334 32.4042V32.4042ZM46.7234 33.8142C45.4855 32.5905 43.8329 31.8767 42.0934 31.8142C41.2111 31.7724 40.3289 31.898 39.4934 32.1842C38.6307 32.4694 37.8275 32.91 37.1234 33.4842L36.7534 33.7642L36.4134 33.4842C35.0041 32.3401 33.2273 31.7466 31.4134 31.8142C29.6702 31.8787 28.016 32.6 26.7825 33.8334C25.5491 35.0668 24.8278 36.7211 24.7634 38.4642C24.6921 40.2787 25.2859 42.0568 26.4334 43.4642L26.7234 43.8242L26.4334 44.1742C25.2876 45.5826 24.6939 47.36 24.7634 49.1742C24.8482 50.9105 25.5761 52.5531 26.8053 53.7823C28.0345 55.0115 29.6771 55.7394 31.4134 55.8242C33.2276 55.8937 35.005 55.3 36.4134 54.1542L36.7634 53.8642L37.1234 54.1542C38.5308 55.3017 40.3089 55.8955 42.1234 55.8242C43.8596 55.7394 45.5022 55.0115 46.7314 53.7823C47.9607 52.5531 48.6885 50.9105 48.7734 49.1742C48.8428 47.36 48.2491 45.5826 47.1034 44.1742L46.8234 43.8342L47.1034 43.4642C47.6625 42.7277 48.0796 41.8935 48.3334 41.0042C48.6196 40.1687 48.7452 39.2865 48.7034 38.4042C48.6364 36.6814 47.9306 35.0452 46.7234 33.8142V33.8142Z" fill="#1A4032"/>
<path d="M36.7634 47.0942C38.5969 47.0942 40.0834 45.6078 40.0834 43.7742C40.0834 41.9406 38.5969 40.4542 36.7634 40.4542C34.9298 40.4542 33.4434 41.9406 33.4434 43.7742C33.4434 45.6078 34.9298 47.0942 36.7634 47.0942Z" fill="#1A4032"/>
<path fill-rule="evenodd" clip-rule="evenodd" d="M83.3338 74.7143C83.3312 76.7132 82.5359 78.6295 81.1225 80.0429C79.709 81.4564 77.7928 82.2516 75.7938 82.2543C75.7938 84.254 74.9994 86.1718 73.5854 87.5859C72.1714 88.9999 70.2536 89.7943 68.2538 89.7943C66.2541 89.7943 64.3363 88.9999 62.9222 87.5859C61.5082 86.1718 60.7138 84.254 60.7138 82.2543C58.7141 82.2543 56.7963 81.4599 55.3822 80.0459C53.9682 78.6318 53.1738 76.714 53.1738 74.7143C53.1738 72.7145 53.9682 70.7967 55.3822 69.3827C56.7963 67.9687 58.7141 67.1743 60.7138 67.1743C60.7138 65.1745 61.5082 63.2567 62.9222 61.8427C64.3363 60.4287 66.2541 59.6343 68.2538 59.6343C70.2536 59.6343 72.1714 60.4287 73.5854 61.8427C74.9994 63.2567 75.7938 65.1745 75.7938 67.1743C77.7928 67.1769 79.709 67.9722 81.1225 69.3856C82.5359 70.7991 83.3312 72.7154 83.3338 74.7143Z" fill="#FFFCF3"/>
<path d="M84.3336 74.7142C84.3381 75.8378 84.1114 76.9503 83.6675 77.9825C83.2237 79.0147 82.5722 79.9445 81.7536 80.7142C80.96 81.4692 80.0139 82.0455 78.9789 82.4043C77.944 82.7631 76.8442 82.896 75.7536 82.7942L76.2536 82.2942C76.3528 83.3846 76.2186 84.4837 75.86 85.5183C75.5013 86.5528 74.9264 87.4991 74.1736 88.2942C73.4071 89.1053 72.4832 89.7514 71.4584 90.1929C70.4336 90.6345 69.3295 90.8623 68.2136 90.8623C67.0977 90.8623 65.9935 90.6345 64.9687 90.1929C63.9439 89.7514 63.02 89.1053 62.2536 88.2942C61.4985 87.5006 60.9222 86.5545 60.5634 85.5196C60.2047 84.4846 60.0717 83.3848 60.1736 82.2942L60.6736 82.7942C59.5829 82.896 58.4831 82.7631 57.4482 82.4043C56.4132 82.0455 55.4671 81.4692 54.6736 80.7142C53.8625 79.9478 53.2164 79.0239 52.7748 77.9991C52.3332 76.9742 52.1055 75.8701 52.1055 74.7542C52.1055 73.6383 52.3332 72.5341 52.7748 71.5093C53.2164 70.4845 53.8625 69.5606 54.6736 68.7942C55.4686 68.0413 56.4149 67.4664 57.4495 67.1078C58.484 66.7491 59.5831 66.615 60.6736 66.7142L60.1736 67.2142C60.0717 66.1236 60.2047 65.0238 60.5634 63.9888C60.9222 62.9539 61.4985 62.0078 62.2536 61.2142C63.0177 60.3992 63.9408 59.7496 64.966 59.3055C65.9911 58.8614 67.0964 58.6323 68.2136 58.6323C69.3307 58.6323 70.436 58.8614 71.4612 59.3055C72.4863 59.7496 73.4094 60.3992 74.1736 61.2142C74.9264 62.0092 75.5013 62.9555 75.86 63.9901C76.2186 65.0246 76.3528 66.1237 76.2536 67.2142L75.7536 66.7142C76.844 66.615 77.9431 66.7491 78.9776 67.1078C80.0122 67.4664 80.9585 68.0413 81.7536 68.7942C82.5624 69.5546 83.2082 70.4715 83.6517 71.4892C84.0952 72.5068 84.3272 73.6041 84.3336 74.7142V74.7142ZM82.3336 74.7142C82.326 72.9732 81.67 71.2975 80.4936 70.0142C79.8949 69.3648 79.1834 68.8295 78.3936 68.4342C77.5812 68.0226 76.6997 67.7649 75.7936 67.6742L75.3436 67.6142L75.2936 67.1742C75.1097 65.3755 74.278 63.705 72.9536 62.4742C71.6746 61.2906 69.9961 60.6332 68.2536 60.6332C66.511 60.6332 64.8325 61.2906 63.5536 62.4742C62.2253 63.7022 61.3929 65.3742 61.2136 67.1742V67.6242L60.7635 67.6742C58.9648 67.858 57.2944 68.6897 56.0636 70.0142C54.8971 71.3016 54.251 72.9769 54.251 74.7142C54.251 76.4515 54.8971 78.1267 56.0636 79.4142C57.2916 80.7424 58.9635 81.5749 60.7635 81.7542H61.2136V82.2042C61.3929 84.0042 62.2253 85.6762 63.5536 86.9042C64.841 88.0707 66.5162 88.7167 68.2536 88.7167C69.9909 88.7167 71.6661 88.0707 72.9536 86.9042C74.278 85.6734 75.1097 84.0029 75.2936 82.2042L75.3436 81.7642L75.7936 81.7042C76.6997 81.6134 77.5812 81.3558 78.3936 80.9442C79.1855 80.5524 79.8977 80.0166 80.4936 79.3642C81.6643 78.0972 82.3203 76.4392 82.3336 74.7142V74.7142Z" fill="#1A4032"/>
<path d="M68.2625 78.4143C70.306 78.4143 71.9625 76.7577 71.9625 74.7143C71.9625 72.6708 70.306 71.0143 68.2625 71.0143C66.219 71.0143 64.5625 72.6708 64.5625 74.7143C64.5625 76.7577 66.219 78.4143 68.2625 78.4143Z" fill="#1A4032"/>
<path d="M38.7428 75.7042C38.6614 77.9603 39.4695 80.1581 40.9928 81.8242C42.6576 83.3486 44.8572 84.1537 47.1128 84.0642V86.0642C45.7666 85.9883 44.4422 85.6909 43.1928 85.1842C41.949 84.6687 40.8355 83.8831 39.9328 82.8842C39.0707 81.8944 38.4449 80.7215 38.1028 79.4542C37.78 78.2321 37.6584 76.9655 37.7428 75.7042H38.7428Z" fill="#1A4032"/>
<path d="M57.9141 34.1042C57.9103 36.4216 58.685 38.673 60.114 40.4973C61.543 42.3215 63.5433 43.6129 65.7941 44.1642C66.0921 44.2324 66.4025 44.224 66.6964 44.1398C66.9903 44.0556 67.2581 43.8983 67.4747 43.6827C67.6914 43.467 67.8499 43.2 67.9355 42.9065C68.0211 42.613 68.0309 42.3026 67.9641 42.0042C67.417 39.7514 66.1288 37.7478 64.3062 36.3151C62.4836 34.8824 60.2324 34.1038 57.9141 34.1042V34.1042Z" fill="#FFFCF3"/>
<path d="M57.9141 34.1043C60.2225 34.1144 62.4611 34.8968 64.2733 36.3266C66.0855 37.7565 67.3672 39.7516 67.9141 41.9943C67.9738 42.2593 67.9735 42.5344 67.913 42.7992C67.8526 43.0641 67.7336 43.3121 67.5648 43.525C67.396 43.7379 67.1817 43.9103 66.9376 44.0296C66.6935 44.1488 66.4258 44.212 66.1541 44.2143C66.0161 44.2118 65.8787 44.195 65.7441 44.1643C63.5026 43.6034 61.5136 42.3079 60.0944 40.4845C58.6751 38.6611 57.9076 36.4149 57.9141 34.1043V34.1043ZM57.9141 32.1043H55.9141V34.1043C55.9059 36.8709 56.83 39.5597 58.5372 41.7368C60.2444 43.914 62.6353 45.4525 65.3241 46.1043C65.6121 46.1752 65.9075 46.2122 66.2041 46.2143C66.7822 46.2089 67.3518 46.074 67.8709 45.8197C68.3901 45.5653 68.8456 45.1978 69.2041 44.7443C69.5588 44.2945 69.807 43.7702 69.93 43.2108C70.053 42.6513 70.0475 42.0713 69.9141 41.5143C69.2591 38.8272 67.7197 36.4383 65.5433 34.7317C63.3669 33.025 60.6799 32.0996 57.9141 32.1043V32.1043Z" fill="#1A4032"/>
<path d="M68.3929 46.1242C68.7912 48.5476 70.0374 50.7507 71.9093 52.3406C73.7812 53.9304 76.157 54.8035 78.6129 54.8042C78.6135 52.3475 77.7393 49.9707 76.147 48.0999C74.5547 46.229 72.3482 44.9863 69.9229 44.5942C69.715 44.564 69.5029 44.5828 69.3035 44.649C69.1041 44.7152 68.9229 44.827 68.7743 44.9756C68.6257 45.1242 68.5139 45.3054 68.4477 45.5048C68.3815 45.7042 68.3627 45.9163 68.3929 46.1242V46.1242Z" fill="#FFFCF3"/>
<path d="M69.7238 44.5742C69.7901 44.5639 69.8575 44.5639 69.9238 44.5742C72.3491 44.9662 74.5556 46.209 76.1479 48.0799C77.7402 49.9507 78.6144 52.3274 78.6138 54.7842C76.1579 54.7835 73.7821 53.9104 71.9102 52.3206C70.0383 50.7307 68.7921 48.5276 68.3938 46.1042C68.3668 45.9128 68.3809 45.7179 68.4351 45.5324C68.4894 45.3469 68.5825 45.1751 68.7083 45.0285C68.8342 44.8818 68.9899 44.7636 69.165 44.6819C69.3401 44.6001 69.5306 44.5566 69.7238 44.5542V44.5742ZM69.7238 42.5542C69.2417 42.5558 68.7656 42.6614 68.328 42.8639C67.8905 43.0663 67.5018 43.3608 67.1885 43.7273C66.8752 44.0938 66.6447 44.5235 66.5127 44.9872C66.3807 45.451 66.3504 45.9377 66.4238 46.4142C66.8781 49.3173 68.3574 51.9616 70.5938 53.8677C72.8301 55.7738 75.6754 56.8156 78.6138 56.8042H80.6138V54.8042C80.626 51.8687 79.587 49.0258 77.6849 46.7899C75.7829 44.554 73.1433 43.0728 70.2438 42.6142C70.0708 42.5991 69.8968 42.5991 69.7238 42.6142V42.5542Z" fill="#1A4032"/>
<path d="M68.2741 45.4443C68.2813 46.8045 68.0617 48.1564 67.6241 49.4443C67.1743 50.7798 66.4292 51.9967 65.4441 53.0043C64.4416 53.9811 63.2364 54.7254 61.9141 55.1843C60.6247 55.6162 59.2738 55.8358 57.9141 55.8343V53.8343C60.2353 54.0791 62.5596 53.4001 64.3841 51.9443C65.2867 51.1349 65.9915 50.1291 66.4441 49.0043C66.9183 47.8621 67.1988 46.6488 67.2741 45.4143L68.2741 45.4443Z" fill="#1A4032"/>
<path d="M26.4141 64.3643C26.4141 65.7234 26.6818 67.0693 27.2019 68.325C27.722 69.5808 28.4844 70.7217 29.4455 71.6828C31.3865 73.6238 34.0191 74.7143 36.7641 74.7143C36.7641 71.9693 35.6736 69.3367 33.7326 67.3957C31.7916 65.4547 29.1591 64.3643 26.4141 64.3643Z" fill="#FFFCF3"/>
<path d="M26.4141 64.3643C29.1591 64.3643 31.7916 65.4547 33.7326 67.3957C35.6736 69.3367 36.7641 71.9693 36.7641 74.7143C34.0191 74.7143 31.3865 73.6238 29.4455 71.6828C27.5045 69.7418 26.4141 67.1092 26.4141 64.3643V64.3643ZM26.4141 62.3643H24.4141V64.3643C24.4167 67.6389 25.7187 70.7786 28.0342 73.0941C30.3497 75.4096 33.4894 76.7116 36.7641 76.7143H38.7641V74.7143C38.7614 71.4396 37.4594 68.2999 35.1439 65.9844C32.8284 63.6689 29.6887 62.3669 26.4141 62.3643V62.3643Z" fill="#1A4032"/>
<path d="M78.6137 34.1042C78.615 35.4638 78.3482 36.8103 77.8285 38.0666C77.3088 39.3229 76.5465 40.4644 75.5852 41.4257C74.6238 42.3871 73.4823 43.1494 72.226 43.6691C70.9697 44.1888 69.6232 44.4556 68.2637 44.4542C68.2637 41.7093 69.3541 39.0767 71.2951 37.1357C73.2361 35.1947 75.8687 34.1042 78.6137 34.1042Z" fill="#FFFCF3"/>
<path d="M78.6137 34.1042C78.615 35.4638 78.3482 36.8103 77.8285 38.0666C77.3088 39.3229 76.5465 40.4644 75.5852 41.4257C74.6238 42.3871 73.4823 43.1494 72.226 43.6691C70.9697 44.1888 69.6232 44.4556 68.2637 44.4542C68.2637 41.7093 69.3541 39.0767 71.2951 37.1357C73.2361 35.1947 75.8687 34.1042 78.6137 34.1042ZM80.6137 32.1042H78.6137C75.3391 32.1069 72.1993 33.4089 69.8838 35.7244C67.5683 38.0399 66.2663 41.1796 66.2637 44.4542V46.4542H68.2637C71.5383 46.4516 74.678 45.1496 76.9935 42.8341C79.309 40.5186 80.611 37.3789 80.6137 34.1042V32.1042Z" fill="#1A4032"/>
<defs>
<filter id="filter0_f" x="0" y="0" width="107" height="119" filterUnits="userSpaceOnUse" color-interpolation-filters="sRGB">
<feFlood flood-opacity="0" result="BackgroundImageFix"/>
<feBlend mode="normal" in="SourceGraphic" in2="BackgroundImageFix" result="shape"/>
<feGaussianBlur stdDeviation="7.5" result="effect1_foregroundBlur"/>
</filter>
</defs>
</svg>
