<svg width="107" height="119" viewBox="0 0 107 119" fill="none" xmlns="http://www.w3.org/2000/svg">
<g opacity="0.8" filter="url(#filter0_f)">
<path d="M44.0616 52.7956C30.9102 52.7006 20.1586 43.4891 19.2327 31.8276C20.1775 31.6187 21.0844 31.5047 21.8781 31.5047C31.8172 31.5237 42.172 40.9821 44.0616 52.7956Z" fill="#EFDEB3"/>
<path d="M61.2379 30.2132C61.2379 38.475 58.3279 46.0531 53.5095 51.9029C48.6911 46.0531 45.7812 38.494 45.7812 30.2132C45.7812 23.8126 48.9179 18.4947 53.5095 15C58.1012 18.4947 61.2379 23.8126 61.2379 30.2132Z" fill="#EFDEB3"/>
<path d="M87.7484 31.8276C86.8414 43.4891 76.0897 52.7006 62.9383 52.7956C64.8279 41.0011 75.1827 31.5237 85.103 31.5237C85.8966 31.5237 86.8036 31.6187 87.7484 31.8276Z" fill="#EFDEB3"/>
<path d="M87.7484 87.1725C86.8036 87.3814 85.8966 87.4953 85.0841 87.4953C75.1639 87.4953 64.809 78.018 62.9195 66.2235C76.0898 66.2994 86.8414 75.5109 87.7484 87.1725Z" fill="#EFDEB3"/>
<path d="M92 59.5C88.3153 62.121 83.5347 63.7164 78.3195 63.7164C72.5752 63.7164 67.1899 62.178 62.5038 59.5C67.1899 56.822 72.5752 55.2836 78.3195 55.2836C83.5347 55.2836 88.3153 56.879 92 59.5Z" fill="#EFDEB3"/>
<path d="M44.4962 59.5C39.81 62.178 34.4248 63.7164 28.6805 63.7164C23.4464 63.7164 18.6658 62.121 15 59.5C18.6847 56.879 23.4653 55.2836 28.6805 55.2836C34.4248 55.2836 39.81 56.822 44.4962 59.5Z" fill="#EFDEB3"/>
<path d="M61.2379 88.7868C61.2379 95.1874 58.1012 100.505 53.5095 104C48.9179 100.505 45.7812 95.1874 45.7812 88.7868C45.7812 80.525 48.6911 72.9469 53.5095 67.0971C58.3279 72.9469 61.2379 80.525 61.2379 88.7868Z" fill="#EFDEB3"/>
<path d="M44.0616 66.2235C42.172 78.018 31.8171 87.4953 21.8969 87.4953C21.0844 87.4953 20.1774 87.3814 19.2515 87.1725C20.1585 75.5109 30.9102 66.2994 44.0616 66.2235Z" fill="#EFDEB3"/>
</g>
<path d="M76.6436 58.904L76.1912 53.8776L75.2764 43.9053L75.1859 42.9L74.1807 43.0106L56.5883 44.8804L47.7921 45.8254L45.5906 46.0465L44.4948 46.1672L43.3388 46.3582C40.269 46.8993 37.4226 48.3208 35.1458 50.4497C34.5707 50.9742 34.0332 51.5385 33.5373 52.1385C33.1855 52.6311 32.8035 53.1438 32.532 53.6163C32.4354 53.7544 32.3481 53.8988 32.2707 54.0485C31.9987 54.4665 31.7633 54.9071 31.567 55.3655C31.4463 55.6067 31.3358 55.858 31.2252 56.0993C30.3476 58.2365 29.933 60.5356 30.0088 62.8447L30.0792 64.0008L30.1897 65.1066L30.421 67.2981L30.8934 71.7012L31.8284 80.4974L31.8786 81H32.3813L63.6152 78.1048C67.1522 77.7569 70.4458 76.1475 72.8939 73.571C75.3517 70.987 76.7816 67.5946 76.915 64.0309C76.9305 62.318 76.8399 60.6058 76.6436 58.904ZM34.6532 53.0332C35.1096 52.4964 35.6034 51.9925 36.1309 51.5253C37.1493 50.5692 38.3089 49.7757 39.569 49.173C40.8396 48.557 42.1948 48.1335 43.5901 47.9164L44.5954 47.7656L45.7012 47.665L47.9027 47.464L56.709 46.6497L73.3362 45.1217L73.8087 49.5248L34.3516 53.4655L34.6532 53.0332ZM71.7378 72.4753C69.5706 74.8199 66.6285 76.3017 63.4544 76.6472L32.7633 79.8942L32.0093 71.5605L31.6072 67.1574L31.4061 64.9558L31.2956 63.85V62.7844C31.2855 62.6237 31.2855 62.4626 31.2956 62.3019C31.2956 62.3019 31.2956 62.3019 31.2956 62.2516C31.2956 61.7892 31.2956 61.3268 31.376 60.9246C31.3808 60.8711 31.3808 60.8173 31.376 60.7638C31.3654 60.6972 31.3654 60.6293 31.376 60.5627C31.3633 60.4357 31.3633 60.3078 31.376 60.1807C31.3863 60.0593 31.4031 59.9385 31.4262 59.8188C31.4214 59.7956 31.4214 59.7717 31.4262 59.7485C31.4262 59.6479 31.9188 59.6982 31.9188 59.6982L74.4923 55.476L74.8643 59.0347C75.086 60.6511 75.2135 62.2791 75.2463 63.9103C75.1768 67.101 73.9267 70.1527 71.7378 72.4753V72.4753Z" fill="#1A4032"/>
<path d="M73.8509 49.5248L34.3535 53.4655L34.6551 53.0634C35.1115 52.5266 35.6053 52.0227 36.1329 51.5555C37.1491 50.5887 38.3088 49.785 39.5709 49.173C40.8415 48.557 42.1967 48.1335 43.592 47.9164L44.5973 47.7656L45.7031 47.6651L47.9046 47.464L56.7109 46.6497L73.3382 45.1217L73.8509 49.5248Z" fill="#FFFCF3"/>
<path d="M75.2454 63.9506C75.166 67.1273 73.9167 70.163 71.7369 72.4753C69.5697 74.82 66.6276 76.3017 63.4535 76.6472L32.7624 79.8943L32.0084 71.5605L31.6063 67.1574L31.4052 64.9558L31.2947 63.85V62.7844C31.2846 62.6238 31.2846 62.4626 31.2947 62.3019C31.2947 62.3019 31.2947 62.3019 31.2947 62.2516C31.2947 61.7892 31.2947 61.3268 31.3751 60.9247C31.3799 60.8712 31.3799 60.8173 31.3751 60.7638C31.3645 60.6972 31.3645 60.6294 31.3751 60.5628C31.3624 60.4358 31.3624 60.3078 31.3751 60.1808C31.3854 60.0593 31.4022 59.9385 31.4253 59.8189C31.4205 59.7957 31.4205 59.7717 31.4253 59.7485C31.4253 59.648 31.9179 59.6982 31.9179 59.6982L74.4914 55.4761L74.8634 59.0348C75.0866 60.6645 75.2142 62.3059 75.2454 63.9506Z" fill="#FFFCF3"/>
<path d="M66.9934 70.0993L62.4102 70.7141L62.8111 73.7032L67.3943 73.0884L66.9934 70.0993Z" fill="#1A4032"/>
<path d="M59.6048 71.0907L53.248 71.9434L53.649 74.9324L60.0057 74.0797L59.6048 71.0907Z" fill="#1A4032"/>
<defs>
<filter id="filter0_f" x="0" y="0" width="107" height="119" filterUnits="userSpaceOnUse" color-interpolation-filters="sRGB">
<feFlood flood-opacity="0" result="BackgroundImageFix"/>
<feBlend mode="normal" in="SourceGraphic" in2="BackgroundImageFix" result="shape"/>
<feGaussianBlur stdDeviation="7.5" result="effect1_foregroundBlur"/>
</filter>
</defs>
</svg>
